# xmcd
#
# Track frame offsets:
#	150
#	12533
#	24991
#	33843
#	48320
#	66247
#	81930
#	97082
#	105634
#	127836
#	134738
#	152365
#	167223
#	180200
#	195577
#	210504
#	226712
#	245164
#	260691
#	273068
#
# Disc length: 4117 seconds
#
# Revision: 1
# Processed by: cddbd v1.5.1PL0 Copyright (c) Steve Scherf et al.
# Submitted via: EasyCDDAExtractor 5.1.0
#
DISCID=07101314
DTITLE=Dave Lindholm - Valmista kamaa
DYEAR=1900
DGENRE=Blues
TTITLE0=Annan kitaran laulaa vain
TTITLE1=Sä voit auttaa
TTITLE2=Minun nimein on nimessun
TTITLE3=Sitähän se kaikki on
TTITLE4=Puhelinlasku on minun
TTITLE5=Voi kun riittäis pieni taivas
TTITLE6=Mihin vain
TTITLE7=Jatsikansa tulee
TTITLE8=Tätä iloista siltaa
TTITLE9=Puhtaat laivat
TTITLE10=Tupaakka, viina ja villit naiset
TTITLE11=Juba sinne tänne
TTITLE12=Sataa and 22
TTITLE13=Petin pienen linnun
TTITLE14=Rock-kukko
TTITLE15=Pyydän
TTITLE16=Joo, joo, mä rakastan sua
TTITLE17=Viimeinen
TTITLE18=Tanssi pieni tanssi
TTITLE19=Pieni ja hento ote
EXTD=
EXTT0=
EXTT1=
EXTT2=
EXTT3=
EXTT4=
EXTT5=
EXTT6=
EXTT7=
EXTT8=
EXTT9=
EXTT10=
EXTT11=
EXTT12=
EXTT13=
EXTT14=
EXTT15=
EXTT16=
EXTT17=
EXTT18=
EXTT19=
PLAYORDER=
